<svg width="214" height="159" viewBox="0 0 214 159" fill="none" xmlns="http://www.w3.org/2000/svg">
<g clip-path="url(#clip0)">
<path opacity="0.1" d="M210.492 70.8019C210.454 71.0275 210.415 71.2531 210.373 71.4787C209.003 79.1607 206.766 86.5668 203.441 93.3666C203.332 93.5922 203.22 93.8177 203.107 94.0433C200.973 98.3309 198.352 102.36 195.296 106.052C193.639 108.044 191.833 109.935 189.685 111.301C186.674 113.214 183.155 113.992 179.695 114.628C176.101 115.291 172.46 115.837 168.827 116.441C167.539 116.65 166.26 116.87 164.988 117.099C161.478 117.732 157.995 118.463 154.594 119.432C150.39 120.64 146.31 122.197 142.471 124.403C142.164 124.577 141.86 124.757 141.56 124.941C141.259 125.122 140.954 125.307 140.661 125.496C140.368 125.686 140.073 125.873 139.782 126.064L139.333 126.367C139.186 126.463 139.04 126.568 138.895 126.665C138.463 126.959 138.036 127.269 137.61 127.567L137.594 127.579C137.313 127.781 137.034 127.982 136.755 128.183C135.181 129.346 133.642 130.562 132.108 131.783L131.14 132.554C130.64 132.949 130.141 133.343 129.641 133.736C129.348 133.968 129.051 134.198 128.756 134.427C128.542 134.594 128.33 134.762 128.111 134.927C127.018 135.767 125.911 136.588 124.782 137.374C124.513 137.561 124.24 137.749 123.973 137.932C121.712 139.474 119.308 140.794 116.792 141.876L116.76 141.89C115.521 142.416 114.246 142.854 112.945 143.201C112.2 143.402 111.454 143.562 110.699 143.686C108.685 144.033 106.631 144.069 104.607 143.791C100.628 143.229 96.9003 141.374 92.932 140.754C84.7449 139.487 76.7941 143.574 69.0898 146.782C67.204 147.569 65.2973 148.308 63.3697 148.998C62.0928 149.457 60.8097 149.894 59.5206 150.309C51.6671 152.841 43.5747 154.567 35.3693 155.459C32.0193 155.824 28.5258 155.997 25.1151 155.735C23.8272 155.641 22.5455 155.475 21.2761 155.238C16.9583 154.432 12.9273 152.722 9.68034 149.598C6.98293 147.042 5.0796 143.7 3.62886 140.214C3.0456 138.813 2.53172 137.381 2.0872 135.916C1.38851 133.62 0.863716 131.275 0.517254 128.9C0.438453 128.365 0.367735 127.827 0.315201 127.289C0.210134 126.367 0.132006 125.44 0.0808196 124.51C-0.202078 119.564 0.282491 114.604 1.51741 109.806C2.89339 104.491 5.18871 99.401 6.19897 94.0353C6.2414 93.8097 6.27979 93.5841 6.31818 93.3585C6.45288 92.5528 6.55526 91.7324 6.6253 90.8972C7.13447 84.3351 5.16446 77.9119 3.60866 71.4787C3.5541 71.2531 3.49955 71.0275 3.44702 70.8019C3.27864 70.0889 3.11902 69.3752 2.96815 68.6608C1.52752 61.857 1.13351 54.5758 2.41251 47.7861C2.45292 47.5605 2.49939 47.3329 2.54586 47.1093C3.40863 42.9037 4.9321 38.9036 7.26581 35.3406C9.66013 31.6828 12.8041 28.6394 16.1561 25.9646C17.7927 24.6621 19.4853 23.4436 21.2337 22.3089C22.4905 21.4952 23.7701 20.7251 25.0727 19.9987C35.5976 14.1576 47.6056 11.3035 59.4782 11.942C60.1073 11.9743 60.735 12.0172 61.3613 12.0709C62.0187 12.1273 62.674 12.1945 63.3273 12.2724C70.9709 13.1525 78.4085 15.3339 85.8016 17.7207C88.2788 18.5263 90.7499 19.332 93.221 20.1377C94.3201 20.4948 95.4186 20.8473 96.5164 21.1951C101.901 22.889 107.375 24.4178 112.899 25.5699C114.18 25.8384 115.46 26.0835 116.738 26.305C121.182 27.0986 125.679 27.5605 130.193 27.6867C131.944 27.7297 133.695 27.7116 135.446 27.6324C136.331 27.5921 137.217 27.533 138.103 27.4551C147.258 26.6736 156.086 24.0532 164.95 21.5919C166.231 21.2354 167.514 20.8809 168.789 20.5385C170.474 20.0873 172.161 19.6502 173.854 19.2474C184.397 16.7237 193.793 18.1738 203.594 23.3784C205.817 24.5608 208.039 25.9868 209.413 28.1943C210.787 30.4018 211.121 33.135 211.375 35.7655C211.735 39.5079 211.981 43.3025 212.06 47.1133C212.06 47.3389 212.06 47.5645 212.074 47.7901C212.252 55.5064 211.781 63.281 210.492 70.8019Z" fill="#39D093"/>
<path opacity="0.1" d="M140.564 93.3665H139.875V93.6666V94.0433H140.655L140.564 93.3665ZM132.755 93.3665C132.754 93.3718 132.754 93.3773 132.755 93.3826L132.694 93.9426V93.9929V94.0433H138.675V94.003L139.101 93.3665H132.755ZM116.762 93.3665V71.4786H123.632C123.559 71.4182 123.484 71.3578 123.408 71.3014L123.307 71.2248C123.264 71.1906 123.222 71.1584 123.177 71.1281C123.133 71.0979 123.028 71.0214 122.949 70.969C122.87 70.9167 122.822 70.8824 122.747 70.8401L122.7 70.8099H122.69H116.762V69.6115L116.603 69.688L116.433 69.7827H116.421L116.384 69.8048L116.279 69.8733C116.243 69.8955 116.206 69.9176 116.172 69.9418C116.067 70.0123 115.97 70.0888 115.859 70.1674L115.758 70.248C115.689 70.3003 115.625 70.3547 115.556 70.4091C115.287 70.6286 115.022 70.8582 114.748 71.0697C114.679 71.1241 114.61 71.1765 114.546 71.2268C114.399 71.3341 114.246 71.4336 114.089 71.5249C114.024 71.5654 113.956 71.6024 113.887 71.6357L113.774 71.6881L113.671 71.7324C113.428 71.8344 113.176 71.914 112.919 71.9701V93.3665H102.614C102.614 93.3907 102.629 93.4128 102.635 93.437C102.691 93.6384 102.748 93.8398 102.802 94.0413H112.921V117.504H113.079L113.259 117.516L113.586 117.54L114.115 117.593L114.354 117.621L114.616 117.653H114.655C114.806 117.673 114.96 117.698 115.115 117.722L115.214 117.738L115.437 117.774L115.756 117.831L116.522 117.79L116.627 117.812C116.669 117.812 116.712 117.829 116.756 117.839V94.0433H132.68V93.9929V93.9426L132.74 93.3826C132.739 93.3773 132.739 93.3718 132.74 93.3665H116.762ZM140.564 93.3665H139.875V93.6666V94.0433H140.655L140.564 93.3665ZM132.324 93.3665L132.256 94.0433H138.909L139.362 93.3665H132.324ZM116.766 93.3665V71.4786H123.636C123.563 71.4182 123.488 71.3578 123.412 71.3014L123.311 71.2248C123.268 71.1906 123.226 71.1584 123.181 71.1281C123.137 71.0979 123.032 71.0214 122.953 70.969C122.874 70.9167 122.826 70.8824 122.751 70.8401L122.704 70.8099H122.69H116.762V69.6115L116.603 69.688L116.433 69.7827H116.421L116.384 69.8048L116.279 69.8733C116.243 69.8955 116.206 69.9176 116.172 69.9418C116.067 70.0123 115.97 70.0888 115.859 70.1674L115.758 70.248C115.689 70.3003 115.625 70.3547 115.556 70.4091C115.287 70.6286 115.022 70.8582 114.748 71.0697C114.679 71.1241 114.61 71.1765 114.546 71.2268C114.399 71.3341 114.246 71.4336 114.089 71.5249C114.024 71.5654 113.956 71.6024 113.887 71.6357L113.774 71.6881L113.671 71.7324C113.428 71.8344 113.176 71.914 112.919 71.9701V93.3665H102.614C102.614 93.3907 102.629 93.4128 102.635 93.437C102.691 93.6384 102.75 93.8398 102.804 94.0413H112.921V117.502L113.079 117.512L113.259 117.524L113.586 117.549L114.115 117.601L114.354 117.629L114.616 117.661H114.655C114.806 117.681 114.96 117.706 115.115 117.73L115.214 117.746L115.437 117.782L115.756 117.839L116.522 117.798L116.627 117.82C116.669 117.82 116.712 117.837 116.756 117.847V94.0433H132.256L132.328 93.3665H116.766ZM168.827 47.786H212.113C212.113 47.5604 212.113 47.3348 212.099 47.1093H168.827V20.5344C167.542 20.8768 166.259 21.2313 164.988 21.5878V47.1093H117.91L117.791 46.9804L117.97 46.7789L135.48 27.6222C133.729 27.7028 131.978 27.7209 130.227 27.6766L116.762 42.4001V26.3009C115.477 26.0794 114.197 25.8343 112.923 25.5658V41.6589L93.2372 20.1336C90.766 19.3279 88.2949 18.5082 85.8178 17.7166L112.576 46.9804L112.456 47.1093H63.3435V12.2643C62.6888 12.1904 62.0335 12.1233 61.3775 12.0628C60.7511 12.0078 60.1234 11.9648 59.4944 11.9339V47.1093H25.0889V19.9986C23.7836 20.7237 22.5039 21.4938 21.2499 22.3089V47.1093H2.53777C2.4913 47.3328 2.44483 47.5604 2.40442 47.786H21.2337V70.8018H3.44701C3.49954 71.0274 3.5541 71.253 3.60865 71.4786H21.2418V93.3665H6.31212C6.27373 93.5921 6.23534 93.8177 6.1929 94.0433H21.2418V155.244C22.5111 155.481 23.7928 155.647 25.0808 155.741V94.0433H59.4944V150.315C60.7848 149.897 62.0678 149.46 63.3435 149.004V94.0433H112.915V143.209C114.216 142.862 115.491 142.424 116.73 141.898L116.762 141.884V94.0433H164.976V117.099C166.254 116.87 167.534 116.65 168.815 116.441V94.0433H203.097C203.21 93.8177 203.321 93.5921 203.431 93.3665H168.827V71.4786H210.375C210.418 71.253 210.456 71.0274 210.494 70.8018H168.827V47.786ZM25.0909 47.786H59.4944V70.8018H25.0889L25.0909 47.786ZM25.0909 93.3665V71.4786H59.4944V93.3665H25.0909ZM63.3455 47.786H112.915V70.8018H63.3435L63.3455 47.786ZM63.3455 93.3665V71.4786H112.915V93.3665H63.3455ZM164.978 93.3665H116.762V71.4786H164.976L164.978 93.3665ZM164.978 70.8079H116.762V48.4024L117.439 47.786H164.976L164.978 70.8079ZM132.757 93.3665C132.756 93.3718 132.756 93.3773 132.757 93.3826L132.696 93.9426V93.9929V94.0433H138.677V94.003L139.103 93.3665H132.757ZM140.566 93.3665H139.877V93.6666V94.0433H140.657L140.566 93.3665ZM116.764 93.3665V71.4786H123.634C123.561 71.4182 123.486 71.3578 123.41 71.3014L123.309 71.2248C123.266 71.1906 123.224 71.1584 123.179 71.1281C123.135 71.0979 123.03 71.0214 122.951 70.969C122.872 70.9167 122.824 70.8824 122.749 70.8401L122.702 70.8099H122.692H116.762V69.6115L116.603 69.688L116.433 69.7827H116.421L116.384 69.8048L116.279 69.8733C116.243 69.8955 116.206 69.9176 116.172 69.9418C116.067 70.0123 115.97 70.0888 115.859 70.1674L115.758 70.248C115.689 70.3003 115.625 70.3547 115.556 70.4091C115.287 70.6286 115.022 70.8582 114.748 71.0697C114.679 71.1241 114.61 71.1765 114.546 71.2268C114.399 71.3341 114.246 71.4336 114.089 71.5249C114.024 71.5654 113.956 71.6024 113.887 71.6357L113.774 71.6881L113.671 71.7324C113.428 71.8344 113.176 71.914 112.919 71.9701V93.3665H102.614C102.614 93.3907 102.629 93.4128 102.635 93.437C102.691 93.6384 102.748 93.8398 102.802 94.0413H112.921V117.504H113.079L113.259 117.516L113.586 117.54L114.115 117.593L114.354 117.621L114.616 117.653H114.655C114.806 117.673 114.96 117.698 115.115 117.722L115.214 117.738L115.437 117.774L115.756 117.831L116.522 117.79L116.627 117.812C116.669 117.812 116.712 117.829 116.756 117.839V94.0433H132.68V93.9929V93.9426L132.74 93.3826C132.739 93.3773 132.739 93.3718 132.74 93.3665H116.764Z" fill="#39D093"/>
<path opacity="0.1" d="M41.6309 31.9387H41.938C41.8329 31.878 41.7445 31.7924 41.6807 31.6894C41.6169 31.5865 41.5797 31.4693 41.5723 31.3485V31.3485C41.5723 30.8812 42.1461 30.5005 42.8473 30.5005H51.7679C52.469 30.5005 53.0428 30.8812 53.0428 31.3485C53.0428 31.8138 52.469 32.1965 51.7679 32.1965H51.4709C51.5755 32.2575 51.6634 32.3432 51.7268 32.4462C51.7902 32.5491 51.8272 32.666 51.8346 32.7866C51.8346 33.1895 51.4183 33.5198 50.8607 33.6104H53.4288C54.1279 33.6104 54.7017 33.9911 54.7017 34.4584C54.7017 34.9257 54.1279 35.3043 53.4288 35.3043H44.498C43.7989 35.3043 43.2251 34.9236 43.2251 34.4584C43.2251 34.0555 43.6413 33.7252 44.199 33.6346H41.6309C40.9318 33.6346 40.358 33.2539 40.358 32.7866C40.358 32.3193 40.9278 31.9387 41.6309 31.9387Z" fill="#39D093"/>
<path opacity="0.1" d="M138.317 40.0093H138.616C138.511 39.9484 138.422 39.8624 138.359 39.7591C138.295 39.6558 138.258 39.5383 138.25 39.4172V39.4172C138.25 38.9519 138.824 38.5712 139.525 38.5712H148.446C149.147 38.5712 149.721 38.9519 149.721 39.4172C149.721 39.8845 149.147 40.2651 148.446 40.2651H148.149C148.254 40.3265 148.342 40.4126 148.405 40.5159C148.469 40.6191 148.506 40.7364 148.513 40.8573C148.513 41.2601 148.097 41.5884 147.539 41.6791H150.107C150.806 41.6791 151.38 42.0618 151.38 42.527C151.38 42.9923 150.806 43.375 150.107 43.375H141.188C140.489 43.375 139.915 42.9943 139.915 42.527C139.915 42.1242 140.332 41.7939 140.889 41.7053H138.317C137.618 41.7053 137.044 41.3226 137.044 40.8573C137.044 40.392 137.622 40.0093 138.317 40.0093Z" fill="#39D093"/>
<path opacity="0.1" d="M27.9459 74.5462H28.2449C28.1402 74.4849 28.0522 74.3988 27.9888 74.2955C27.9253 74.1922 27.8884 74.0749 27.8812 73.954V73.954C27.8812 73.4888 28.4531 73.1061 29.1542 73.1061H38.0748C38.7759 73.1061 39.3498 73.4888 39.3498 73.954C39.3498 74.4213 38.7759 74.802 38.0748 74.802H37.7778C37.8825 74.8633 37.9705 74.9495 38.0339 75.0527C38.0974 75.156 38.1343 75.2733 38.1415 75.3942C38.1415 75.797 37.7253 76.1253 37.1676 76.2159H39.7357C40.4368 76.2159 41.0086 76.5966 41.0086 77.0639C41.0086 77.5312 40.4368 77.9119 39.7357 77.9119H30.813C30.1139 77.9119 29.5401 77.5292 29.5401 77.0639C29.5401 76.6611 29.9584 76.3308 30.514 76.2401H27.9459C27.2468 76.2401 26.673 75.8594 26.673 75.3942C26.673 74.9289 27.2468 74.5462 27.9459 74.5462Z" fill="#39D093"/>
<path d="M131.116 132.562C130.616 132.957 130.116 133.351 129.617 133.745C129.324 133.976 129.027 134.206 128.732 134.435C128.518 134.603 128.305 134.77 128.087 134.935C126.994 135.775 125.887 136.597 124.757 137.382C124.489 137.569 124.216 137.757 123.949 137.94C121.688 139.482 119.283 140.802 116.768 141.884L116.736 141.898V132.562H131.116Z" fill="#65617D"/>
<path d="M153.6 95.8722L153.827 88.9133C153.691 88.8085 153.554 88.7119 153.423 88.6152C153.478 86.5404 153.359 84.4645 153.067 82.4095C152.154 75.4506 146.223 75.2996 144.55 76.7357C144.329 76.9264 144.087 77.0925 143.829 77.2311C143.981 76.2382 144.169 75.2432 144.304 74.2603C145.035 68.959 143.9 62.995 139.774 59.569C138.046 58.1369 135.935 57.2567 134.038 56.0583C130.639 53.9212 127.954 50.7651 124.517 48.6844C121.08 46.6038 116.253 45.8243 113.255 48.4991C112.093 49.5344 111.343 50.9705 110.151 51.9695C107.928 53.8306 104.463 53.9535 102.524 56.0321C102.427 56.1368 102.334 56.2436 102.245 56.3564C100.628 58.4229 101.071 61.3535 101.586 63.9175C102.206 67.0032 101.95 69.4766 104.605 70.3628C104.615 70.4857 104.623 70.6086 104.637 70.7294C104.853 72.6223 105.481 74.4453 106.478 76.0708C107.475 77.6962 108.816 79.0849 110.408 80.1396L109.977 80.2927C108.83 80.6955 107.797 81.0862 107.136 81.3541C104.712 82.3391 99.6079 83.6221 99.6079 83.6221C99.6079 83.6221 99.4867 85.0723 99.5089 87.2113C97.8076 89.0543 94.9688 92.293 94.1343 94.2125C92.922 97.0122 86.0724 105.031 84.2479 106.241C82.4233 107.452 80.4452 108.888 80.4452 108.888C80.4452 108.888 77.5559 110.477 76.188 110.628C75.2404 110.733 72.3086 110.173 72.3086 110.173C72.3086 110.173 60.5996 95.8722 61.3593 106.845C62.1191 117.819 71.4721 118.191 71.4721 118.191L80.9019 118.04C80.9019 118.04 85.9977 118.721 88.2788 116.832C90.2266 115.22 100.321 106.38 103.564 102.37C103.639 102.452 103.714 102.533 103.792 102.612C103.792 102.612 105.084 100.948 105.237 102.612C105.391 104.275 104.399 105.029 104.932 105.633C105.465 106.237 107.062 108.356 107.136 109.188C107.211 110.02 105.009 113.418 108.733 115.996C108.791 116.036 108.854 116.074 108.923 116.113C109.587 117.621 111.701 119.098 111.701 119.098L123.107 118.946L144.627 120.61C144.627 120.61 145.268 120.048 146.135 119.13C147.292 120.189 148.899 121.098 150.709 120.54C150.709 120.54 153.295 117.44 153.372 115.397C153.372 115.397 151.699 111.085 150.947 109.8C150.196 108.515 151.481 105.715 151.481 105.715C151.481 105.715 152.392 102.992 152.926 102.992C153.459 102.992 153.077 101.18 153.077 101.18C152.875 100.883 152.749 100.542 152.709 100.186C152.67 99.8306 152.718 99.4705 152.849 99.1372C153.295 97.9911 153.6 95.8722 153.6 95.8722Z" fill="url(#paint0_linear)"/>
<path d="M140.699 94.3051L139.891 95.2478L136.626 99.0384L132.361 99.2962L125.533 99.7152C125.533 99.7152 116.328 88.6574 118.057 86.2505C118.686 85.3824 118.789 84.2363 118.663 83.1547C118.647 83.0057 118.625 82.8566 118.599 82.7096C118.392 81.5652 118.03 80.454 117.524 79.4064L117.75 79.3036L117.896 79.2372L125.945 75.5754L127.938 74.6691C128.037 75.2165 128.221 75.7451 128.483 76.2361C128.522 76.3126 128.564 76.3892 128.609 76.4617C131.354 80.9935 140.16 78.1274 140.16 78.1274L140.699 94.3051Z" fill="#EE8E9E"/>
<path d="M152.602 88.6473C152.542 91.3906 152.093 92.5749 152.093 92.5749L140.699 94.3051L140.273 91.3563L138.586 79.7125L140.17 78.1334C140.803 78.2694 141.459 78.2588 142.087 78.1024C142.715 77.9459 143.298 77.6478 143.793 77.231C145.452 75.801 151.337 75.952 152.243 82.8707C152.508 84.7844 152.629 86.7155 152.602 88.6473V88.6473Z" fill="#EE8E9E"/>
<path d="M149.905 120.779C149.905 120.779 152.469 117.696 152.546 115.665L149.98 111.377L147.717 108.96L143.49 117.093C143.49 117.093 146.282 121.907 149.905 120.779Z" fill="#DFE5EE"/>
<path opacity="0.1" d="M149.905 120.779C149.905 120.779 152.469 117.696 152.546 115.665L149.98 111.377L147.717 108.96L143.49 117.093C143.49 117.093 146.282 121.907 149.905 120.779Z" fill="black"/>
<path d="M128.732 134.435C128.518 134.603 128.305 134.77 128.087 134.935C126.994 135.775 125.887 136.597 124.757 137.382C124.489 137.569 124.216 137.757 123.949 137.94H112.915H63.3435H59.4944L40.4247 137.259L25.0889 137.13L21.2499 136.929L2.09533 135.922C1.39361 133.624 0.86611 131.277 0.517299 128.9C0.438499 128.365 0.36778 127.827 0.315247 127.289L21.2418 128.445L25.0808 128.661L59.4864 130.574L63.3355 130.788L112.907 133.547L116.722 133.761H116.754L128.732 134.435Z" fill="#D48A9B"/>
<path d="M154.582 119.432C150.378 120.64 146.298 122.197 142.459 124.403C142.154 124.578 141.853 124.757 141.548 124.94C141.243 125.124 140.942 125.307 140.649 125.496C140.356 125.686 140.061 125.873 139.77 126.064L139.321 126.367L138.883 126.665C138.45 126.961 138.024 127.269 137.598 127.567L137.582 127.579C137.301 127.78 137.022 127.982 136.743 128.183C135.169 129.345 133.629 130.562 132.096 131.783C131.773 132.04 131.449 132.298 131.124 132.554L129.629 133.736C129.336 133.968 129.039 134.198 128.744 134.427C128.53 134.594 128.318 134.762 128.099 134.927L116.784 134.389H116.752L112.937 134.212L63.3435 131.869L59.4944 131.686L25.0889 130.056L21.2499 129.873L0.517245 128.9C0.438444 128.365 0.367726 127.827 0.315192 127.289C0.210125 126.367 0.131997 125.44 0.0808105 124.509L21.2478 117.057L25.0868 115.702L28.5743 114.473L34.9288 114.803L49.616 115.555L59.5004 116.072L63.3495 116.274L65.8085 116.402L66.3965 116.435L87.0907 117.512L87.3089 117.526L96.5427 118.006H96.6478H96.7084L97.6318 118.052L100.78 118.217L104.716 118.419L106.013 118.487L106.257 118.501L108.092 118.596L108.615 118.622L110.367 118.715L111.064 118.753H111.086H111.232L112.871 118.84L115.408 118.973H115.42L116.209 119.013H116.293L116.764 119.039L117.92 119.099L118.93 119.152H118.94L120.074 119.21H120.092L120.951 119.257L121.609 119.291L123.947 119.414L124.367 119.436H124.513L124.715 119.448L125.4 119.484L125.707 119.5L128.091 119.623H128.309L131.829 119.593H131.853L145.235 119.484H145.492H145.763H146.559L150.867 119.45H151.509L154.582 119.432Z" fill="#EFC6CD"/>
<path d="M64.2669 119.708L65.5116 126.308L99.3513 125.801C99.3513 125.801 101.897 126.534 101.841 124.504C101.841 124.504 106.991 119.651 133.078 125.293L123.062 117.452L95.6841 118.918L63.9376 118.072L64.2669 119.708Z" fill="#39D093"/>
<path d="M64.8892 118.129L66.0772 125.293C66.0772 125.293 95.1728 124.447 99.7473 125.237L96.2902 118.693C96.2902 118.693 78.6974 117.057 64.8892 118.129Z" fill="white"/>
<path opacity="0.1" d="M64.8892 118.129L66.0772 125.293C66.0772 125.293 95.1728 124.447 99.7473 125.237L96.2902 118.693C96.2902 118.693 78.6974 117.057 64.8892 118.129Z" fill="black"/>
<path d="M65.3236 118.103L66.4955 124.765C66.4955 124.765 95.2213 123.98 99.7473 124.713L96.3387 118.628C96.3387 118.628 78.9581 117.106 65.3236 118.103Z" fill="white"/>
<path opacity="0.1" d="M65.851 118.308L66.9926 124.54C66.9926 124.54 95.088 123.804 99.5231 124.491L96.1892 118.797C96.1892 118.797 79.1885 117.367 65.851 118.308Z" fill="black"/>
<path d="M66.0773 118.08L67.2249 124.324C67.2249 124.324 95.3204 123.589 99.7554 124.276L96.4135 118.576C96.4135 118.576 79.4148 117.148 66.0773 118.08Z" fill="white"/>
<path d="M46.1994 101.135C46.1994 101.135 47.6703 103.051 45.5225 105.945C43.3747 108.839 41.6006 111.281 42.3179 113.085C42.3179 113.085 45.5508 107.711 48.1977 107.647C50.8446 107.583 49.1029 104.366 46.1994 101.135Z" fill="#39D093"/>
<path opacity="0.1" d="M46.1993 101.135C46.3286 101.321 46.43 101.525 46.5004 101.739C49.0745 104.761 50.4465 107.581 47.9713 107.641C45.6659 107.705 42.9018 111.814 42.2391 112.854C42.262 112.932 42.2882 113.01 42.3179 113.089C42.3179 113.089 45.5507 107.716 48.1976 107.651C50.8445 107.587 49.1028 104.366 46.1993 101.135Z" fill="black"/>
<path d="M48.9331 103.578C48.9331 104.251 48.8563 104.799 48.7634 104.799C48.6704 104.799 48.5936 104.251 48.5936 103.578C48.5936 102.906 48.6886 103.22 48.7815 103.22C48.8745 103.22 48.9331 102.903 48.9331 103.578Z" fill="#FFD037"/>
<path d="M49.8706 104.382C49.2765 104.706 48.7593 104.902 48.7148 104.819C48.6704 104.737 49.1189 104.416 49.7089 104.086C50.2989 103.756 50.0686 103.997 50.113 104.086C50.1575 104.175 50.4646 104.06 49.8706 104.382Z" fill="#FFD037"/>
<path d="M38.4345 101.135C38.4345 101.135 36.9635 103.051 39.1134 105.945C41.2632 108.839 43.0332 111.281 42.3179 113.085C42.3179 113.085 39.075 107.711 36.4362 107.647C33.7974 107.583 35.531 104.366 38.4345 101.135Z" fill="#39D093"/>
<path opacity="0.1" d="M38.4345 101.135C38.3063 101.322 38.2049 101.525 38.1334 101.739C35.5593 104.761 34.1873 107.581 36.6625 107.641C38.9679 107.705 41.734 111.814 42.3967 112.854C42.3752 112.932 42.3489 113.01 42.3179 113.089C42.3179 113.089 39.075 107.716 36.4362 107.651C33.7973 107.587 35.531 104.366 38.4345 101.135Z" fill="black"/>
<path d="M35.7007 103.578C35.7007 104.251 35.7775 104.799 35.8704 104.799C35.9634 104.799 36.0401 104.251 36.0401 103.578C36.0401 102.906 35.9452 103.22 35.8522 103.22C35.7593 103.22 35.7007 102.903 35.7007 103.578Z" fill="#FFD037"/>
<path d="M34.7632 104.382C35.3572 104.706 35.8765 104.902 35.9209 104.819C35.9654 104.737 35.5168 104.416 34.9268 104.086C34.3368 103.756 34.5672 103.997 34.5227 104.086C34.4783 104.175 34.1691 104.06 34.7632 104.382Z" fill="#FFD037"/>
<path d="M50.2222 110.501L50.1495 111.105L50.0464 111.949L50.004 112.302L49.9009 113.148L49.8565 113.5L49.7514 114.346L48.5755 123.958C48.4704 124.816 47.0641 125.484 45.3669 125.484H39.2608C37.5636 125.484 36.1593 124.816 36.0543 123.958L34.8763 114.346L34.7733 113.5L34.7308 113.148L34.6258 112.302L34.5833 111.949L34.4803 111.105L34.4055 110.501C34.3469 110.016 35.1066 109.607 36.0684 109.607H48.5674C49.5271 109.607 50.2889 110.016 50.2222 110.501Z" fill="#65617D"/>
<path d="M50.1555 111.099L50.0525 111.945H34.5833L34.4803 111.099H50.1555Z" fill="#9D9CB5"/>
<path d="M50.01 112.298L49.907 113.143H34.7308L34.6257 112.298H50.01Z" fill="#9D9CB5"/>
<path d="M49.8625 113.496L49.7595 114.34H34.8763L34.7733 113.496H49.8625Z" fill="#9D9CB5"/>
<path d="M68.8696 109.724C68.8696 109.724 64.9458 105.963 65.0973 110.852C65.2488 115.74 68.8696 109.724 68.8696 109.724Z" fill="#EE8E9E"/>
<path d="M104.106 101.149C104.019 101.528 103.597 102.156 102.938 102.944C99.5352 107.028 89.8549 115.518 87.9576 117.093C85.6946 118.974 80.6393 118.302 80.6393 118.302L71.2842 118.453C71.2842 118.453 62.004 118.076 61.2483 107.173C60.4926 96.2708 72.1126 110.483 72.1126 110.483C72.1126 110.483 75.0222 111.039 75.9618 110.934C77.3195 110.785 80.1867 109.206 80.1867 109.206C80.1867 109.206 82.1486 107.776 83.959 106.573C85.7694 105.371 92.5604 97.3967 93.7687 94.6132C94.5344 92.8468 97.0015 89.9584 98.7048 88.0853C99.6827 87.0077 100.408 86.2725 100.408 86.2725C100.408 86.2725 104.633 98.8167 104.106 101.149Z" fill="#EE8E9E"/>
<path opacity="0.1" d="M104.106 101.149C104.019 101.528 103.596 102.156 102.938 102.944C99.5028 99.4573 98.7855 92.5004 98.7047 88.0772C99.6826 86.9997 100.408 86.2645 100.408 86.2645C100.408 86.2645 104.633 98.8168 104.106 101.149Z" fill="black"/>
<path opacity="0.1" d="M139.889 95.2478L136.626 99.0384L132.361 99.2963L125.533 99.7152C125.533 99.7152 116.328 88.6575 118.057 86.2505C118.686 85.3824 118.789 84.2364 118.663 83.1548C118.647 83.0057 118.625 82.8567 118.599 82.7096C118.392 81.5652 118.03 80.454 117.524 79.4064L117.75 79.3037L117.896 79.2372C118.255 80.2349 118.503 81.2691 118.635 82.3209C118.657 82.4639 118.678 82.6129 118.698 82.766C118.769 83.3098 118.833 83.9141 118.9 84.5788C119.425 90.6656 123.266 92.9557 125 93.6848C125.557 93.9192 126.102 94.182 126.632 94.4723C128.3 95.3893 130.224 95.7359 132.108 95.4593C136.388 94.8993 139.877 91.7995 139.877 91.7995L139.895 94.851L139.889 95.2478Z" fill="black"/>
<path d="M140.021 118.9C140.021 118.9 111.953 118.824 108.254 116.268C104.554 113.712 106.746 110.326 106.67 109.498C106.593 108.67 105.011 106.565 104.483 105.961C103.956 105.357 104.936 104.608 104.785 102.954C104.633 101.3 103.352 102.954 103.352 102.954C98.0683 97.6124 99.1998 84.0752 99.1998 84.0752C99.1998 84.0752 104.251 82.7982 106.676 81.8173C107.332 81.5515 108.355 81.1728 109.504 80.7639L109.931 80.6109C112.895 79.5534 116.419 78.359 116.419 78.359C116.419 78.359 117.096 77.8817 117.777 79.3097C118.088 79.9663 118.401 81.0238 118.651 82.7136C118.674 82.8566 118.694 83.0057 118.714 83.1588C118.785 83.7026 118.849 84.3068 118.916 84.9715C119.441 91.0583 123.282 93.3484 125.016 94.0776C125.573 94.3119 126.118 94.5748 126.649 94.8651C128.317 95.782 130.24 96.1287 132.124 95.852C136.404 95.2921 139.893 92.1923 139.893 92.1923L139.911 95.2437L139.964 104.412L140.021 118.9Z" fill="#DFE5EE"/>
<path d="M138.812 107.017L138.36 109.875C138.36 109.875 127.192 112.656 122.818 113.484C118.443 114.312 109.009 113.258 108.331 115.063C107.652 116.868 111.198 119.351 111.198 119.351L122.513 119.2L143.866 120.856C143.866 120.856 152.014 113.71 149.374 108.745C146.733 103.78 138.812 107.017 138.812 107.017Z" fill="#EE8E9E"/>
<path opacity="0.1" d="M115.8 84.4518C115.8 84.4518 110.668 88.6634 111.65 90.6956C112.632 92.7279 115.8 84.4518 115.8 84.4518Z" fill="black"/>
<path opacity="0.1" d="M109.462 92.0472C109.462 92.0472 104.255 100.998 104.558 101.675C104.861 102.352 106.294 104.759 106.217 102.954C106.14 101.149 109.462 92.0472 109.462 92.0472Z" fill="black"/>
<path opacity="0.1" d="M111.576 93.6283C111.576 93.6283 110.363 99.1934 109.161 101.526C107.959 103.858 111.576 93.6283 111.576 93.6283Z" fill="black"/>
<path opacity="0.1" d="M128.619 76.4677C127.621 78.2914 126.2 79.8505 124.474 81.0146C122.748 82.1787 120.767 82.9139 118.698 83.1587H118.674C115.418 83.5398 112.139 82.684 109.488 80.7619C112.519 79.6702 116.403 78.357 116.403 78.357C116.403 78.357 117.079 77.8796 117.76 79.3076L127.948 74.675C128.062 75.3077 128.289 75.9148 128.619 76.4677V76.4677Z" fill="black"/>
<path d="M130.211 69.7848C130.215 72.0499 129.622 74.2764 128.493 76.2422C127.954 77.1796 127.3 78.0469 126.548 78.8243C124.447 81.0044 121.648 82.3837 118.635 82.7238H118.609C118.127 82.7788 117.643 82.8063 117.158 82.8063C113.951 82.8064 110.856 81.6295 108.464 79.5C106.072 77.3706 104.55 74.4378 104.188 71.2612C104.132 70.7737 104.105 70.2835 104.106 69.7928C104.106 66.342 105.481 63.0324 107.929 60.5923C110.376 58.1522 113.696 56.7813 117.158 56.7813C120.62 56.7813 123.94 58.1522 126.388 60.5923C128.836 63.0324 130.211 66.342 130.211 69.7928V69.7848Z" fill="#EE8E9E"/>
<path opacity="0.1" d="M138.663 94.4059L139.875 92.5932C139.875 92.5932 146.514 84.6956 153.008 89.7351L152.782 96.6557C152.782 96.6557 152.479 98.7605 152.026 99.8784C151.896 100.21 151.849 100.568 151.889 100.922C151.928 101.276 152.053 101.615 152.253 101.911C152.253 101.911 152.631 103.723 152.103 103.723C151.576 103.723 150.669 106.43 150.669 106.43C150.669 106.43 149.386 109.214 150.141 110.493C150.897 111.772 152.556 116.058 152.556 116.058C152.556 116.058 149.915 114.479 149.159 111.847C149.159 111.847 142.746 106.882 137.766 110.034L138.663 94.4059Z" fill="black"/>
<path opacity="0.1" d="M152.602 88.6473C152.542 91.3905 152.093 92.5749 152.093 92.5749L140.699 94.305L140.273 91.3563C141.764 89.8054 147.187 84.8747 152.602 88.6473Z" fill="black"/>
<path d="M138.663 94.003L139.875 92.1903C139.875 92.1903 146.514 84.2928 153.008 89.3322L152.782 96.2529C152.782 96.2529 152.479 98.3577 152.026 99.4755C151.896 99.8073 151.849 100.165 151.889 100.519C151.928 100.873 152.053 101.213 152.253 101.508C152.253 101.508 152.631 103.321 152.103 103.321C151.576 103.321 150.669 106.028 150.669 106.028C150.669 106.028 149.386 108.811 150.141 110.09C150.897 111.369 152.556 115.655 152.556 115.655C152.556 115.655 149.915 114.076 149.159 111.444C149.159 111.444 142.746 106.479 137.766 109.631L138.663 94.003Z" fill="#DFE5EE"/>
<path opacity="0.1" d="M149.375 88.8889C149.375 88.8889 138.436 95.584 138.964 101.455C138.964 101.455 145.076 90.6936 149.375 88.8889Z" fill="black"/>
<path opacity="0.1" d="M139.887 95.2497L139.94 104.418C137.871 104.511 135.921 104.243 134.379 102.908C133.306 101.977 132.682 100.692 132.359 99.3022C132.118 98.1824 132.03 97.0354 132.096 95.8922C132.095 95.8808 132.095 95.8693 132.096 95.8579C132.223 93.3261 132.807 90.7943 132.5 88.2786C132.193 85.763 130.663 83.1083 128.166 82.5786C127.673 82.4718 127.119 82.4335 126.768 82.073C126.38 81.6702 126.398 81.0438 126.44 80.4859L126.513 79.5452C126.531 79.3035 126.539 79.0639 126.539 78.8242C126.538 76.6857 125.792 74.6141 124.428 72.9632C123.065 71.3123 121.169 70.1845 119.064 69.7725L118.983 69.7584C118.28 69.6174 117.548 69.4784 116.845 69.6396C115.507 69.9477 114.643 71.2408 113.41 71.8552C111.046 73.0314 107.104 71.7444 104.629 71.3395C104.467 71.3134 104.314 71.2831 104.166 71.2489C104.11 70.7615 104.082 70.2712 104.083 69.7806C104.084 67.7877 104.544 65.8216 105.428 64.034C106.312 62.2465 107.596 60.6852 109.181 59.4706C110.766 58.2561 112.61 57.4207 114.57 57.0289C116.53 56.6371 118.555 56.6995 120.487 57.2111C122.419 57.7227 124.207 58.6699 125.714 59.9797C127.221 61.2894 128.406 62.9267 129.177 64.7653C129.949 66.6038 130.287 68.5944 130.164 70.5836C130.042 72.5728 129.462 74.5073 128.471 76.238C128.509 76.3145 128.552 76.3911 128.596 76.4636C131.342 80.9954 140.148 78.1293 140.148 78.1293L140.677 94.301L139.887 95.2497Z" fill="black"/>
<path d="M113.885 71.6317C115.109 71.0154 115.974 69.7223 117.32 69.4161C118.021 69.255 118.752 69.394 119.46 69.533L119.54 69.5491C121.766 69.9881 123.753 71.2255 125.124 73.027C126.496 74.8286 127.157 77.069 126.982 79.3238L126.909 80.2644C126.865 80.8203 126.847 81.4508 127.239 81.8496C127.588 82.2101 128.142 82.2524 128.635 82.3531C131.132 82.8848 132.662 85.5254 132.969 88.0552C133.276 90.585 132.682 93.1248 132.565 95.6667C132.448 98.2086 132.916 101.014 134.844 102.684C137.875 105.302 142.481 103.812 146.492 103.572C144.718 103.572 143.389 101.747 143.292 99.9831C143.195 98.2187 143.983 96.5388 144.736 94.9477C145.49 93.3565 146.246 91.6444 146.078 89.884C145.848 87.4671 143.936 85.5314 143.205 83.2051C142.352 80.4981 143.174 77.5916 143.56 74.7778C144.286 69.5088 143.156 63.5771 139.065 60.1711C137.351 58.7471 135.256 57.871 133.373 56.6786C129.999 54.5456 127.338 51.4176 123.927 49.343C120.516 47.2684 115.728 46.499 112.751 49.1577C111.6 50.1869 110.856 51.615 109.672 52.608C107.359 54.5516 103.681 54.5879 101.826 56.9726C100.23 59.0251 100.663 61.9396 101.174 64.4875C101.855 67.8854 101.471 70.53 105.114 71.1342C107.579 71.523 111.519 72.81 113.885 71.6317Z" fill="#603556"/>
<path opacity="0.1" d="M143.902 101.949C140.982 102.305 138.089 102.489 135.963 100.652C134.036 98.982 133.561 96.1783 133.684 93.6344C133.807 91.0906 134.397 88.5487 134.088 86.0209C133.779 83.4931 132.252 80.8526 129.754 80.3208C129.261 80.2161 128.71 80.1778 128.358 79.8173C127.968 79.4145 127.984 78.7861 128.029 78.2301L128.101 77.2895C128.276 75.0349 127.615 72.7948 126.243 70.9936C124.872 69.1924 122.885 67.9554 120.66 67.5168L120.579 67.5007C119.872 67.3617 119.14 67.2228 118.439 67.3839C117.102 67.692 116.237 68.9952 115.004 69.5995C112.638 70.7777 108.7 69.4907 106.221 69.0859C102.584 68.4917 102.964 65.8431 102.281 62.4391C101.899 60.5378 101.562 58.4309 102.079 56.6303C101.982 56.733 101.889 56.8317 101.8 56.9546C100.204 59.007 100.636 61.9215 101.148 64.4694C101.828 67.8673 101.445 70.5119 105.088 71.1161C107.565 71.519 111.505 72.808 113.871 71.6297C115.095 71.0134 115.96 69.7203 117.306 69.4142C118.007 69.253 118.738 69.392 119.445 69.531L119.526 69.5471C121.752 69.9861 123.739 71.2236 125.11 73.0251C126.482 74.8266 127.143 77.067 126.968 79.3218L126.895 80.2624C126.851 80.8183 126.832 81.4488 127.224 81.8476C127.574 82.2081 128.128 82.2504 128.621 82.3511C131.118 82.8829 132.648 85.5234 132.955 88.0532C133.262 90.583 132.67 93.1228 132.551 95.6647C132.431 98.2066 132.902 101.012 134.83 102.682C137.861 105.3 142.467 103.81 146.478 103.57C145.389 103.576 144.474 102.888 143.902 101.949Z" fill="black"/>
<path d="M61.9008 108.668L74.3574 104.035C74.6519 103.926 74.9779 103.937 75.264 104.067C75.55 104.197 75.7726 104.435 75.8829 104.728V104.728C75.9928 105.022 75.9814 105.347 75.851 105.632C75.7207 105.917 75.4822 106.139 75.1878 106.249L62.7313 110.882L60.0601 110.616L61.9008 108.668Z" fill="#5C5C8E"/>
<path opacity="0.1" d="M75.5071 104.35C75.6169 104.643 75.6052 104.969 75.4744 105.254C75.3437 105.539 75.1047 105.761 74.81 105.87L62.3454 110.519L60.341 110.318L60.0521 110.624L62.7232 110.89L75.1797 106.257C75.4741 106.147 75.7126 105.925 75.8429 105.64C75.9733 105.355 75.9847 105.03 75.8748 104.736V104.736C75.783 104.492 75.6125 104.284 75.3899 104.146C75.4347 104.211 75.4739 104.279 75.5071 104.35V104.35Z" fill="white"/>
<path d="M61.9028 108.668L62.7312 110.882L60.541 110.662L60.0621 110.614L60.7168 109.921L61.9028 108.668Z" fill="#EFC8C4"/>
<path d="M60.7148 109.915C60.7659 109.953 60.8097 110 60.8441 110.054C60.8646 110.086 60.8754 110.123 60.8754 110.162C60.8754 110.2 60.8646 110.237 60.8441 110.269C60.8096 110.305 60.7693 110.334 60.7249 110.356C60.6748 110.389 60.6329 110.433 60.6021 110.485C60.5714 110.537 60.5525 110.594 60.5471 110.654L60.0662 110.608L60.7148 109.915Z" fill="#727A9C"/>
<path d="M101.012 122.806C101.012 122.806 111.802 120.548 129.906 123.41L122.814 118.221L109.911 115.589L100.782 118.006L101.012 122.806Z" fill="white"/>
<path opacity="0.1" d="M101.012 122.806C101.012 122.806 111.802 120.548 129.906 123.41L122.814 118.221L109.911 115.589L100.782 118.006L101.012 122.806Z" fill="black"/>
<path d="M99.7473 125.247C99.7473 125.247 105.181 110.596 133.086 125.293L123.07 118.868C123.07 118.868 99.0765 112.259 96.3044 119.875L99.7473 125.247Z" fill="white"/>
<path opacity="0.1" d="M99.7473 125.237C99.7473 125.237 105.181 109.572 133.086 125.519L123.07 118.55C123.07 118.55 99.0684 110.646 96.2902 118.918L99.7473 125.237Z" fill="black"/>
<path d="M99.7473 125.243C99.7473 125.243 105.181 109.347 133.086 125.293L123.07 118.324C123.07 118.324 99.0765 110.646 96.3044 118.928L99.7473 125.243Z" fill="white"/>
<path opacity="0.1" d="M99.7473 125.247C99.7473 125.247 105.181 107.58 133.086 125.519L123.062 117.677C123.062 117.677 99.0684 109.621 96.2963 118.918L99.7473 125.247Z" fill="black"/>
<path d="M99.7473 125.237C99.7473 125.237 105.181 107.355 133.086 125.293L123.062 117.452C123.062 117.452 99.0684 109.395 96.2963 118.693L99.7473 125.237Z" fill="white"/>
<path opacity="0.1" d="M183.466 123.553C183.466 123.553 176.768 130.705 182.797 134.18C182.797 134.18 183.585 135.126 184.71 134.631C184.71 134.631 184.331 134.294 185.092 133.646C185.362 133.413 185.602 133.149 185.81 132.86C186.091 132.47 186.237 131.999 186.226 131.519V131.519C186.226 131.519 187.103 128.681 184.316 124.997C184.316 124.997 184.064 123.764 183.85 123.629L183.341 125.347C183.341 125.347 184.62 125.672 185.1 126.643C185.1 126.643 183.415 125.323 183.252 125.599C183.219 125.656 183.023 126.524 183.023 126.524C183.023 126.524 185.246 127.096 185.941 128.618C185.941 128.618 184.145 126.78 182.947 126.852L182.728 128.177C182.728 128.177 185.106 128.669 185.961 130.373C185.961 130.373 184.017 128.514 182.696 128.471L182.658 129.803C182.658 129.803 184.967 130.327 185.672 131.749C185.672 131.749 183.209 129.829 182.67 130.109C182.67 130.109 182.708 131.336 182.872 131.656C182.872 131.656 184.521 132.059 184.856 132.933C184.856 132.933 183.074 131.823 182.92 131.992C182.92 131.992 183.399 133.575 184.066 134.25C184.066 134.25 183.007 133.326 182.676 132.079C182.676 132.079 182.227 132.858 182.34 133.624C182.34 133.624 181.68 132.895 182.565 131.694C182.565 131.694 182.241 130.445 182.322 130.248C182.322 130.248 181.282 131.309 181.015 132.262C181.015 132.262 180.813 131.07 182.32 129.904V128.562C182.32 128.562 180.869 129.893 180.57 130.717C180.57 130.717 180.55 129.468 182.35 128.226L182.553 126.923C182.553 126.923 181.215 127.974 180.684 128.82C180.684 128.82 180.914 127.656 182.623 126.552L182.86 125.698C182.86 125.698 181.898 126.483 181.647 126.733C181.397 126.983 181.302 126.935 181.302 126.935C181.695 126.259 182.269 125.706 182.959 125.335C182.959 125.335 183.577 123.599 183.466 123.553Z" fill="#39D093"/>
<path opacity="0.1" d="M213.408 7.17447C213.408 7.17447 204.459 11.2028 208.678 16.7196C208.678 16.7196 209.04 17.8979 210.268 17.8737C210.268 17.8737 210.048 17.4165 211.002 17.1103C211.34 16.9999 211.665 16.8491 211.967 16.6612C212.378 16.4091 212.695 16.0309 212.871 15.5836V15.5836C212.871 15.5836 214.778 13.3036 213.632 8.83414C213.632 8.83414 213.877 7.59946 213.731 7.392L212.596 8.78177C212.596 8.78177 213.651 9.57132 213.719 10.6529C213.719 10.6529 212.677 8.78781 212.418 8.98117C212.365 9.01944 211.85 9.74454 211.85 9.74454C211.85 9.74454 213.669 11.1263 213.731 12.8C213.731 12.8 212.786 10.4112 211.65 10.0164L210.937 11.1565C210.937 11.1565 212.941 12.5241 213.075 14.4254C213.075 14.4254 212 11.9641 210.797 11.4163L210.246 12.6248C210.246 12.6248 212.176 13.9964 212.266 15.5796C212.266 15.5796 210.737 12.8604 210.131 12.9128C210.131 12.9128 209.692 14.0569 209.727 14.4174C209.727 14.4174 211.088 15.4245 211.064 16.359C211.064 16.359 209.852 14.651 209.65 14.7477C209.65 14.7477 209.478 16.3913 209.834 17.2715C209.834 17.2715 209.213 16.0106 209.391 14.7336C209.391 14.7336 208.674 15.2815 208.484 16.0307C208.484 16.0307 208.157 15.1022 209.438 14.3348C209.438 14.3348 209.622 13.0598 209.773 12.9088C209.773 12.9088 208.401 13.4868 207.791 14.2563C207.791 14.2563 208.064 13.078 209.908 12.5825L210.434 11.3498C210.434 11.3498 208.581 12.0185 207.985 12.6631C207.985 12.6631 208.45 11.5029 210.591 11.0517L211.28 9.92783C211.28 9.92783 209.64 10.385 208.821 10.9591C208.821 10.9591 209.486 9.97617 211.491 9.61362L212.038 8.91672C212.038 8.91672 210.846 9.27121 210.513 9.40415C210.179 9.53708 210.109 9.45853 210.109 9.45853C210.737 8.98482 211.484 8.6947 212.268 8.62064C212.268 8.62064 213.481 7.25504 213.408 7.17447Z" fill="#39D093"/>
<path opacity="0.1" d="M128.471 9.66797C128.471 9.66797 115.026 13.4949 121.563 19.1909C121.563 19.1909 122.143 20.3994 124.004 20.3994C124.004 20.3994 123.656 19.9321 125.095 19.6481C125.59 19.5488 126.076 19.4059 126.546 19.2211C127.1 19.0275 127.571 18.6518 127.883 18.1556C127.883 18.1556 130.712 15.8998 128.855 11.3518C128.855 11.3518 129.192 10.1111 128.966 9.89758L127.285 11.2712C127.285 11.2712 128.901 12.0991 129.037 13.1928C129.037 13.1928 127.406 11.2813 127.016 11.4686C126.938 11.5069 126.176 12.2239 126.176 12.2239C126.176 12.2239 128.98 13.6701 129.108 15.364C129.108 15.364 127.612 12.9249 125.875 12.4959L124.824 13.6278C124.824 13.6278 127.895 15.0639 128.148 16.9894C128.148 16.9894 126.455 14.4738 124.62 13.8876L123.812 15.0961C123.812 15.0961 126.77 16.5342 126.964 18.1375C126.964 18.1375 124.574 15.3479 123.656 15.3821C123.656 15.3821 123.024 16.5302 123.08 16.8948C123.08 16.8948 125.17 17.9583 125.159 18.8928C125.159 18.8928 123.272 17.1325 122.961 17.2251C122.961 17.2251 122.747 18.8828 123.309 19.7811C123.309 19.7811 122.335 18.49 122.569 17.205C122.569 17.205 121.5 17.7387 121.232 18.49C121.232 18.49 120.71 17.5454 122.63 16.8041C122.63 16.8041 122.874 15.5191 123.099 15.3701C123.099 15.3701 121.038 15.9179 120.134 16.6793C120.134 16.6793 120.514 15.4949 123.295 15.0438L124.058 13.8111C124.058 13.8111 121.27 14.4395 120.385 15.074C120.385 15.074 121.058 13.9138 124.291 13.511L125.301 12.3931C125.301 12.3931 122.828 12.8101 121.603 13.37C121.603 13.37 122.583 12.3931 125.608 12.0809L126.416 11.3921C126.416 11.3921 124.62 11.7184 124.119 11.8433C123.618 11.9681 123.513 11.8876 123.513 11.8876C124.522 11.4002 125.624 11.1311 126.746 11.098C126.746 11.098 128.588 9.75256 128.471 9.66797Z" fill="#39D093"/>
<path opacity="0.1" d="M168.136 159.002C168.136 159.002 174.905 151.914 168.91 148.381C168.91 148.381 168.13 147.427 167.001 147.91C167.001 147.91 167.378 148.25 166.611 148.893C166.339 149.123 166.096 149.384 165.885 149.67C165.6 150.058 165.449 150.527 165.457 151.008V151.008C165.457 151.008 164.55 153.838 167.302 157.548C167.302 157.548 167.542 158.782 167.754 158.921L168.282 157.207C168.282 157.207 167.005 156.871 166.534 155.896C166.534 155.896 168.205 157.229 168.37 156.956C168.405 156.899 168.609 156.035 168.609 156.035C168.609 156.035 166.386 155.431 165.711 153.912C165.711 153.912 167.489 155.769 168.69 155.707L168.92 154.383C168.92 154.383 166.548 153.87 165.705 152.168C165.705 152.168 167.631 154.045 168.952 154.101L169.003 152.768C169.003 152.768 166.697 152.212 165.998 150.782C165.998 150.782 168.443 152.728 168.985 152.452C168.985 152.452 168.958 151.227 168.783 150.905C168.783 150.905 167.138 150.474 166.811 149.608C166.811 149.608 168.583 150.736 168.736 150.567C168.736 150.567 168.273 148.979 167.613 148.299C167.613 148.299 168.663 149.233 168.983 150.482C168.983 150.482 169.439 149.707 169.332 148.941C169.332 148.941 169.987 149.678 169.09 150.869C169.09 150.869 169.401 152.122 169.318 152.317C169.318 152.317 170.369 151.266 170.644 150.325C170.644 150.325 170.846 151.519 169.316 152.669L169.296 154.011C169.296 154.011 170.759 152.694 171.066 151.872C171.066 151.872 171.066 153.123 169.261 154.347L169.059 155.648C169.059 155.648 170.407 154.609 170.947 153.769C170.947 153.769 170.704 154.929 168.985 156.017L168.74 156.869C168.74 156.869 169.71 156.093 169.969 155.846C170.227 155.598 170.316 155.644 170.316 155.644C169.916 156.316 169.337 156.864 168.643 157.227C168.643 157.227 168.035 158.954 168.136 159.002Z" fill="#39D093"/>
<path opacity="0.1" d="M102.119 0.249714C102.119 0.249714 103.273 9.96603 109.828 7.62155C109.828 7.62155 111.062 7.63162 111.41 6.45535C111.41 6.45535 110.905 6.52786 110.901 5.52883C110.896 5.17345 110.849 4.81986 110.761 4.47543C110.645 4.00944 110.379 3.5942 110.004 3.29311V3.29311C110.004 3.29311 108.395 0.791524 103.766 0.545796C103.766 0.545796 102.659 -0.0584528 102.416 0.0180853L103.404 1.51461C103.404 1.51461 104.477 0.749226 105.532 1.01107C105.532 1.01107 103.435 1.4421 103.542 1.74422C103.562 1.80666 104.1 2.51363 104.1 2.51363C104.1 2.51363 105.989 1.18428 107.605 1.63747C107.605 1.63747 105.037 1.81472 104.318 2.77547L105.181 3.79867C105.181 3.79867 107.092 2.30416 108.953 2.74929C108.953 2.74929 106.274 3.03127 105.387 4.00814L106.393 4.8984C106.393 4.8984 108.284 3.4764 109.828 3.85909C109.828 3.85909 106.765 4.49557 106.631 5.08572C106.631 5.08572 107.595 5.84707 107.951 5.92764C107.951 5.92764 109.333 4.93868 110.21 5.24081C110.21 5.24081 108.209 5.88131 108.24 6.1069C108.24 6.1069 109.761 6.76352 110.709 6.69101C110.709 6.69101 109.317 6.89242 108.149 6.3486C108.149 6.3486 108.456 7.19253 109.117 7.60141C109.117 7.60141 108.131 7.63162 107.781 6.19149C107.781 6.19149 106.617 5.63156 106.518 5.44424C106.518 5.44424 106.66 6.92062 107.211 7.73233C107.211 7.73233 106.165 7.12808 106.245 5.21664L105.235 4.34451C105.235 4.34451 105.318 6.30832 105.754 7.06967C105.754 7.06967 104.785 6.2781 104.995 4.10482L104.128 3.11184C104.128 3.11184 104.069 4.80776 104.372 5.75845C104.372 5.75845 103.631 4.83193 103.889 2.81777L103.386 2.08663C103.386 2.08663 103.368 3.32534 103.386 3.68386C103.404 4.04238 103.318 4.07662 103.318 4.07662C103.052 3.33862 102.997 2.54156 103.16 1.77443C103.16 1.77443 102.22 0.201374 102.119 0.249714Z" fill="#39D093"/>
<path opacity="0.1" d="M151.109 136.965C151.109 136.965 141.649 134.347 141.346 141.284C141.346 141.284 140.869 142.42 141.829 143.185C141.829 143.185 141.952 142.693 142.881 143.066C143.213 143.197 143.559 143.288 143.912 143.338C144.389 143.407 144.876 143.317 145.298 143.084V143.084C145.298 143.084 148.228 142.548 150.216 138.383C150.216 138.383 151.196 137.592 151.226 137.338L149.462 137.682C149.462 137.682 149.765 138.963 149.123 139.837C149.123 139.837 149.527 137.739 149.198 137.722C149.131 137.722 148.27 137.946 148.27 137.946C148.27 137.946 148.787 140.174 147.755 141.493C147.755 141.493 148.563 139.056 147.943 138.029L146.662 138.45C146.662 138.45 147.325 140.778 146.205 142.325C146.205 142.325 146.961 139.749 146.387 138.56L145.187 139.142C145.187 139.142 145.793 141.427 144.849 142.708C144.849 142.708 145.419 139.642 144.92 139.294C144.92 139.294 143.849 139.898 143.641 140.192C143.641 140.192 144.045 141.841 143.423 142.536C143.423 142.536 143.585 140.448 143.364 140.391C143.364 140.391 142.176 141.545 141.885 142.448C141.885 142.448 142.219 141.084 143.174 140.216C143.174 140.216 142.273 140.18 141.645 140.633C141.645 140.633 141.988 139.712 143.463 139.94C143.463 139.94 144.425 139.076 144.637 139.058C144.637 139.058 143.223 138.627 142.249 138.828C142.249 138.828 143.215 138.095 144.95 138.893L146.147 138.288C146.147 138.288 144.292 137.622 143.421 137.737C143.421 137.737 144.522 137.132 146.452 138.158L147.7 137.733C147.7 137.733 146.149 137.038 145.151 136.957C145.151 136.957 146.292 136.625 148.064 137.626L148.933 137.438C148.933 137.438 147.789 136.951 147.448 136.834C147.106 136.717 147.108 136.633 147.108 136.633C147.891 136.669 148.648 136.919 149.297 137.358C149.297 137.358 151.115 137.076 151.109 136.965Z" fill="#39D093"/>
</g>
<defs>
<linearGradient id="paint0_linear" x1="107.575" y1="120.705" x2="107.575" y2="46.7831" gradientUnits="userSpaceOnUse">
<stop stop-color="#808080" stop-opacity="0.25"/>
<stop offset="0.54" stop-color="#808080" stop-opacity="0.12"/>
<stop offset="1" stop-color="#808080" stop-opacity="0.1"/>
</linearGradient>
<clipPath id="clip0">
<rect width="214" height="159" fill="white"/>
</clipPath>
</defs>
</svg>
